<?xml version="1.0" encoding="utf-8"?>
<!-- Generator: Adobe Illustrator 27.2.0, SVG Export Plug-In . SVG Version: 6.00 Build 0)  -->
<svg version="1.1" id="Layer_1" xmlns="http://www.w3.org/2000/svg" xmlns:xlink="http://www.w3.org/1999/xlink" x="0px" y="0px"
	 viewBox="0 0 125 125" style="enable-background:new 0 0 125 125;" xml:space="preserve">
<style type="text/css">
	.st0{fill:#FFFFFF;}
	.st1{fill:#F47835;}
</style>
<rect id="bg" x="12.5" y="12.5" class="st0" width="100" height="100"/>
<g>
	<g id="houdini">
		<path class="st1" d="M0,102.26V125h19.91C10.24,119.49,3.4,111.13,0,102.26L0,102.26z"/>
		<path class="st1" d="M83.55,78.54c-0.03-21.02-16.89-41.25-42.24-42.13C23.35,35.79,9.37,42.38,0,52.11v21.94
			c6.37-18.41,23.93-26.85,38.64-26.7C57.02,47.53,71.2,61.4,71.29,77.06c0.08,14.98-6.2,26-23.13,28.72
			c-9.23,1.48-23.68-3.93-23.04-17.88c0.33-7.19,5.93-11.25,12.35-10.96c-6.28,8.42,2.03,14.58,7.91,13.33
			c7.28-1.56,10.24-8.02,10.24-13.03c0-5.29-4.98-13.83-17.35-13.54c-15.3,0.36-24.93,11.37-25.26,24.98
			c-0.41,17.14,15.62,28.4,32.08,28.61C69.25,117.59,83.58,101.75,83.55,78.54L83.55,78.54z"/>
		<path class="st1" d="M0,0v35.96c10.75-8.25,24.74-13.59,41.31-13.58c35.47,0.02,57.99,24.8,57.98,56.07
			C99.28,100.17,89.14,116.5,73.27,125H125V0H0L0,0z"/>
	</g>
	<g>
		<path class="st0" d="M66.77,5.07h4.74v6.4h6.08v-6.4h4.74v17.09h-4.74v-6.49H71.5v6.49h-4.74V5.07z"/>
		<path class="st0" d="M85.34,5.07h7.32c4.32,0,7.1,2.22,7.1,6.01v0.05c0,4.03-3.1,6.15-7.35,6.15h-2.34v4.88h-4.74V5.07z
			 M92.32,13.57c1.68,0,2.71-0.88,2.71-2.22V11.3c0-1.46-1.03-2.25-2.73-2.25h-2.22v4.52H92.32z"/>
		<path class="st0" d="M101.77,5.07h5l4.08,6.62l4.08-6.62h5v17.09h-4.71v-9.81l-4.37,6.69h-0.1l-4.35-6.64v9.77h-4.64V5.07z"/>
	</g>
</g>
<g>
</g>
<g>
</g>
<g>
</g>
<g>
</g>
<g>
</g>
<g>
</g>
<g>
</g>
<g>
</g>
<g>
</g>
<g>
</g>
<g>
</g>
<g>
</g>
<g>
</g>
<g>
</g>
<g>
</g>
</svg>
