<?xml version="1.0" encoding="UTF-8"?><svg id="Layer_1" xmlns="http://www.w3.org/2000/svg" viewBox="0 0 24 24"><defs><style>.cls-1{fill:#4d4d4d;}</style></defs><polygon class="cls-1" points="2 22 2 17 0 17 0 24 7 24 7 22 2 22"/><polygon class="cls-1" points="2 2 7 2 7 0 0 0 0 7 2 7 2 2"/><rect class="cls-1" y="9" width="2" height="6"/><rect class="cls-1" x="9" width="6" height="2"/><rect class="cls-1" x="22" y="9" width="2" height="6"/><polygon class="cls-1" points="17 0 17 2 22 2 22 7 24 7 24 0 17 0"/><polygon class="cls-1" points="22 22 17 22 17 24 24 24 24 17 22 17 22 22"/><rect class="cls-1" x="9" y="22" width="6" height="2"/><polygon class="cls-1" points="17.3 8.11 15.89 6.7 12 10.59 8.11 6.7 6.7 8.11 10.59 12 6.7 15.89 8.11 17.3 12 13.41 15.89 17.3 17.3 15.89 13.41 12 17.3 8.11"/></svg>