<?xml version="1.0" encoding="UTF-8"?><svg id="Layer_1" xmlns="http://www.w3.org/2000/svg" viewBox="0 0 24 24"><defs><style>.cls-1{fill:#fff;}</style></defs><path class="cls-1" d="M24,14.4v-4.8h-3.95c-.17-.56-.39-1.09-.66-1.6l2.79-2.79-3.39-3.39-2.79,2.79c-.5-.27-1.04-.49-1.6-.66V0h-4.8v3.95c-.56.17-1.09.39-1.6.66l-2.79-2.79-3.39,3.39,2.79,2.79c-.27.5-.49,1.04-.66,1.6H0v4.8h3.95c.17.56.39,1.09.66,1.6l-2.79,2.79,3.39,3.39,2.79-2.79c.5.27,1.04.49,1.6.66v3.95h4.8v-3.95c.56-.17,1.09-.39,1.6-.66l2.79,2.79,3.39-3.39-2.79-2.79c.27-.5.49-1.04.66-1.6h3.95ZM12,15.6c-1.99,0-3.6-1.61-3.6-3.6s1.61-3.6,3.6-3.6,3.6,1.61,3.6,3.6-1.61,3.6-3.6,3.6Z"/></svg>