<?xml version="1.0" encoding="UTF-8"?><svg id="Layer_1" xmlns="http://www.w3.org/2000/svg" viewBox="0 0 24 24"><defs><style>.cls-1{fill:#4d4d4d;stroke-width:0px;}</style></defs><path class="cls-1" d="M12,0C10.09,0,8.29.45,6.69,1.24c-.64.32-1.24.69-1.81,1.11l1.48,1.48,2.27,2.27c-.05.18-.09.37-.09.57,0,.8.44,1.48,1.09,1.84v7.87c-.65.36-1.09,1.05-1.09,1.84,0,1.17.95,2.12,2.12,2.12s2.12-.95,2.12-2.12c0-.8-.44-1.48-1.09-1.84v-7.22l2.59,2.59c-.05.18-.09.37-.09.57,0,1.17.95,2.12,2.12,2.12s2.12-.95,2.12-2.12-.95-2.12-2.12-2.12c-.2,0-.39.04-.57.09l-3.05-3.05c.05-.18.09-.37.09-.57,0-1.17-.95-2.12-2.12-2.12-.2,0-.39.04-.57.09l-1.83-1.83c1.18-.48,2.45-.73,3.75-.73,2.65,0,5.15,1.03,7.02,2.91s2.91,4.37,2.91,7.02c0,1.8-.48,3.53-1.37,5.04l1.8,1h0c1.04-1.78,1.63-3.84,1.63-6.05C24,5.37,18.63,0,12,0Z"/><path class="cls-1" d="M12,21.93c-2.65,0-5.15-1.03-7.02-2.91-1.88-1.88-2.91-4.37-2.91-7.02,0-1.8.48-3.53,1.37-5.04l-1.8-1C.6,7.73,0,9.8,0,12,0,18.63,5.37,24,12,24c2.67,0,5.13-.87,7.12-2.34l-1.48-1.48c-1.65,1.14-3.6,1.76-5.65,1.76Z"/><path class="cls-1" d="M2.94,4.13c-1.04,1.2-1.86,2.62-2.37,4.22l3.66,2.31c.41.26.94-.11.83-.59l-1.3-5.73c-.09-.38-.57-.5-.82-.21Z"/><path class="cls-1" d="M23.44,15.62l-3.67-2.3c-.41-.26-.94.11-.83.59l1.32,5.73c.09.38.57.5.83.2.93-1.07,1.68-2.33,2.19-3.74.06-.16.11-.32.16-.48Z"/><path class="cls-1" d="M4.32,2.78h0"/></svg>