<?xml version="1.0" encoding="UTF-8"?><svg id="Layer_1" xmlns="http://www.w3.org/2000/svg" viewBox="0 0 32 32"><defs><style>.cls-1{fill:#f60;}</style></defs><path class="cls-1" d="m0,10.86h2.85v3.85h3.66v-3.85h2.85v10.28h-2.85v-3.91h-3.66v3.91H0v-10.28Z"/><path class="cls-1" d="m11.18,10.86h4.41c2.6,0,4.27,1.34,4.27,3.61v.03c0,2.42-1.87,3.7-4.42,3.7h-1.41v2.94h-2.85v-10.28Zm4.2,5.11c1.01,0,1.63-.53,1.63-1.34v-.03c0-.88-.62-1.35-1.64-1.35h-1.34v2.72h1.35Z"/><path class="cls-1" d="m21.07,10.86h3.01l2.45,3.98,2.45-3.98h3.01v10.28h-2.84v-5.9l-2.63,4.02h-.06l-2.61-3.99v5.87h-2.79v-10.28Z"/></svg>