<?xml version="1.0" encoding="UTF-8"?><svg id="Layer_1" xmlns="http://www.w3.org/2000/svg" viewBox="0 0 56 28"><defs><style>.cls-1{fill:#666;}</style></defs><path class="cls-1" d="m0,5.15h4.99v6.74h6.4v-6.74h4.99v18h-4.99v-6.84h-6.4v6.84H0V5.15Z"/><path class="cls-1" d="m19.57,5.15h7.71c4.55,0,7.48,2.34,7.48,6.33v.05c0,4.24-3.26,6.48-7.74,6.48h-2.47v5.14h-4.99V5.15Zm7.35,8.95c1.77,0,2.85-.93,2.85-2.34v-.05c0-1.54-1.08-2.37-2.88-2.37h-2.34v4.76h2.36Z"/><path class="cls-1" d="m36.88,5.15h5.27l4.29,6.97,4.29-6.97h5.27v18h-4.96v-10.34l-4.6,7.05h-.1l-4.57-6.99v10.29h-4.88V5.15Z"/></svg>