<?xml version="1.0" encoding="UTF-8"?><svg id="Layer_1" xmlns="http://www.w3.org/2000/svg" viewBox="0 0 48 24"><defs><style>.cls-1{fill:#ff8c14;}</style></defs><path class="cls-1" d="m0,4.24h4.24v5.77h5.5v-5.77h4.24v15.43h-4.24v-5.86h-5.5v5.86H0V4.24h0Z"/><path class="cls-1" d="m16.69,4.24h6.59c3.88,0,6.41,1.98,6.41,5.41v.09c0,3.61-2.8,5.59-6.59,5.59h-2.08v4.42h-4.24l-.09-15.52h0Zm6.32,7.67c1.53,0,2.44-.81,2.44-1.98h0c0-1.35-.9-1.98-2.44-1.98h-1.98v4.06h1.98v-.09Z"/><path class="cls-1" d="m31.58,4.24h4.51l3.7,5.95,3.7-5.95h4.51v15.43h-4.24v-8.84l-3.97,6.05h-.09l-3.88-5.95v8.84h-4.15l-.09-15.52h0Z"/></svg>