<?xml version="1.0" encoding="UTF-8"?><svg id="Layer_1" xmlns="http://www.w3.org/2000/svg" viewBox="0 0 48 24"><defs><style>.cls-1{fill:#ff8c14;}</style></defs><path class="cls-1" d="m0,4h4.27v5.99h5.49v-5.99h4.27v16h-4.27v-6.08h-5.49v6.08H0V4Z"/><path class="cls-1" d="m16.77,4h6.61c3.9,0,6.41,2.08,6.41,5.62v.05c0,3.77-2.8,5.76-6.63,5.76h-2.11v4.57h-4.27V4Zm6.3,7.95c1.52,0,2.44-.82,2.44-2.08v-.05c0-1.37-.93-2.1-2.47-2.1h-2.01v4.23h2.03Z"/><path class="cls-1" d="m31.61,4h4.52l3.68,6.19,3.68-6.19h4.52v16h-4.25v-9.19l-3.94,6.26h-.09l-3.92-6.22v9.14h-4.19V4Z"/></svg>