<?xml version="1.0" encoding="UTF-8"?><svg id="Layer_1" xmlns="http://www.w3.org/2000/svg" viewBox="0 0 24 24"><defs><style>.cls-1{fill:#f60;}</style></defs><path class="cls-1" d="m0,8.12h2.12v2.89h2.75v-2.89h2.12v7.71h-2.12v-2.93h-2.75v2.93H0v-7.71h0Z"/><path class="cls-1" d="m8.35,8.12h3.29c1.94,0,3.2.99,3.2,2.71v.05c0,1.8-1.4,2.8-3.29,2.8h-1.04v2.21h-2.12l-.05-7.76h0Zm3.16,3.83c.77,0,1.22-.41,1.22-.99h0c0-.68-.45-.99-1.22-.99h-.99v2.03h.99v-.05Z"/><path class="cls-1" d="m15.79,8.12h2.26l1.85,2.98,1.85-2.98h2.26v7.71h-2.12v-4.42l-1.98,3.02h-.05l-1.94-2.98v4.42h-2.08l-.05-7.76h0Z"/></svg>