<?xml version="1.0" encoding="UTF-8"?><svg id="Layer_1" xmlns="http://www.w3.org/2000/svg" viewBox="0 0 24 24"><defs><style>.cls-1{fill:#666;}</style></defs><path class="cls-1" d="m23.73,15.7c-.61-.59-1.23-1.18-1.88-1.73-.62-.42-1.5-.22-2.22-.25-.21,0-.27-.07-.27-.25,0-.5,0-1,0-1.51,0-.2.07-.32.27-.41.37-.16.74-.31,1.08-.51.2-.12.41-.3.49-.5.34-.85.64-1.71.93-2.57.38-1.04-1.31-1.64-1.73-.54-.25.6-.47,1.21-.66,1.83-.07.34-.71.91-1.01.54-.37-.51-1.04-.91-1.21-1.52.08-1.64,0-3.35-1.43-4.51-.19-.17-.16-.24.01-.38.26-.2.5-.42.51-.76-.11-.86.47-2.47-.85-2.64-1.19-.03-1.01,1.27-.99,2.03,0,.38-.47.71-.86.65-1.26-.19-2.53-.19-3.79,0-.39.06-.85-.28-.86-.65-.01-.46.07-.93-.04-1.38-.22-.92-1.75-.8-1.8.14-.02.62-.01,1.24,0,1.85,0,.34.25.56.51.76.17.13.21.21.01.38-1.43,1.16-1.52,2.87-1.43,4.51-.17.61-.83,1.01-1.21,1.52-.31.37-.93-.19-1.01-.54-.19-.62-.41-1.23-.66-1.83-.42-1.09-2.12-.5-1.73.54.3.86.6,1.72.93,2.57.08.2.29.38.49.5.34.2.71.35,1.08.51.2.08.27.21.27.41-.01.5-.01,1,0,1.51,0,.19-.06.26-.27.25-.73.03-1.6-.18-2.22.25-.65.55-1.27,1.14-1.88,1.73-.83.76.47,1.96,1.29,1.2.48-.41.92-.86,1.4-1.28.39-.31.94-.19,1.41-.21.19,0,.26.06.26.23.02.55.06,1.1.06,1.65,0,.07-.11.17-.19.22-.36.18-.72.34-1.08.5-.36.16-.59.4-.67.78-.29,1.39-.6,2.78-.89,4.17-.25,1.14,1.63,1.48,1.84.33.24-1.13.51-2.27.67-3.41.08-.53.48-.58.82-.77,2.73,5.38,10.86,5.38,13.59,0,.34.19.75.25.82.77.16,1.14.43,2.28.67,3.41.22,1.14,2.1.82,1.84-.33-.29-1.39-.6-2.78-.89-4.17-.15-.8-1.13-.9-1.75-1.28-.08-.04-.19-.14-.19-.22,0-.55.05-1.1.06-1.65,0-.18.08-.24.26-.23.47.03,1.03-.09,1.41.21.48.41.92.86,1.4,1.28.82.76,2.13-.44,1.29-1.2Zm-12.66,5.31c0,.09,0,.19,0,.31-2.61-.38-4.52-2.44-4.6-4.89-.05-1.5-.04-3.01,0-4.51.03-1.4,1.25-2.48,2.76-2.5.5,0,1,.02,1.49,0,.3-.02.36.07.36.34,0,3.75,0,7.5,0,11.26Zm-2.75-13.28c-.24-2.39.69-3.45,3.68-3.45s3.92,1.06,3.68,3.45h-7.35Zm9.2,8.7c-.08,2.45-1.99,4.51-4.6,4.89,0-3.86,0-7.71,0-11.57,0-.26.06-.35.36-.34.5.03,1,0,1.49,0,1.51.01,2.73,1.09,2.76,2.5.03,1.5.05,3.01,0,4.51Z"/></svg>