<?xml version="1.0" encoding="UTF-8"?><svg id="Layer_1" xmlns="http://www.w3.org/2000/svg" viewBox="0 0 24 24"><defs><style>.cls-1{fill:#f60;}</style></defs><path class="cls-1" d="m0,8.15h2.14v2.99h2.74v-2.99h2.14v8h-2.14v-3.04h-2.74v3.04H0v-8Z"/><path class="cls-1" d="m8.39,8.15h3.31c1.95,0,3.21,1.04,3.21,2.81v.02c0,1.89-1.4,2.88-3.32,2.88h-1.06v2.29h-2.14v-8Zm3.15,3.98c.76,0,1.22-.41,1.22-1.04v-.02c0-.69-.46-1.05-1.23-1.05h-1v2.11h1.01Z"/><path class="cls-1" d="m15.8,8.15h2.26l1.84,3.1,1.84-3.1h2.26v8h-2.13v-4.59l-1.97,3.13h-.04l-1.96-3.11v4.57h-2.09v-8Z"/></svg>