<?xml version="1.0" encoding="UTF-8"?><svg id="Layer_1" xmlns="http://www.w3.org/2000/svg" viewBox="0 0 120 36"><defs><style>.cls-1{fill:none;stroke:#000;stroke-miterlimit:10;}.cls-2{fill:#f60;}</style></defs><rect class="cls-2" width="120" height="36" rx="5.32" ry="5.32"/><path d="m18.76,14.88h-1.5l-.82-1.95h-3.81l-.83,1.95h-1.45l3.55-8.12h1.31l3.55,8.12Zm-4.23-6.43l-1.38,3.23h2.78l-1.39-3.23Z"/><path d="m24.26,14.88v-1.01c-.22.32-.5.58-.83.81-.33.22-.75.33-1.24.33-.36,0-.71-.07-1.05-.21-.34-.14-.64-.34-.9-.62-.26-.27-.47-.61-.63-1-.16-.39-.24-.84-.24-1.35s.08-.96.24-1.35c.16-.39.37-.72.63-1,.26-.27.56-.48.9-.62.34-.14.69-.21,1.05-.21.5,0,.91.11,1.24.32.33.22.61.46.83.75v-3.27h1.41v8.41h-1.41Zm-.12-3.85c-.1-.24-.22-.44-.38-.62s-.35-.3-.56-.4c-.21-.09-.44-.14-.67-.14s-.46.04-.67.13c-.21.09-.4.22-.56.39-.16.17-.29.38-.38.62-.09.24-.14.52-.14.82s.05.57.14.81c.09.24.22.45.38.62.16.17.35.3.56.39.21.09.43.14.67.14s.45-.05.67-.14c.21-.09.4-.22.56-.4s.29-.38.38-.62c.1-.24.14-.51.14-.81s-.05-.57-.14-.81Z"/><path d="m31.98,14.88v-1.01c-.22.32-.5.58-.83.81-.33.22-.74.33-1.23.33-.36,0-.71-.07-1.05-.21-.34-.14-.64-.34-.9-.62-.26-.27-.47-.61-.63-1-.16-.39-.24-.84-.24-1.35s.08-.96.24-1.35c.16-.39.37-.72.63-1,.26-.27.56-.48.9-.62.34-.14.69-.21,1.05-.21.5,0,.91.11,1.24.32.33.22.61.46.83.75v-3.27h1.41v8.41h-1.41Zm-.12-3.85c-.1-.24-.22-.44-.38-.62-.16-.17-.35-.3-.56-.4-.21-.09-.44-.14-.67-.14s-.46.04-.67.13c-.21.09-.4.22-.56.39-.16.17-.29.38-.38.62-.09.24-.14.52-.14.82s.05.57.14.81c.09.24.22.45.38.62.16.17.35.3.56.39.21.09.43.14.67.14s.45-.05.67-.14c.21-.09.4-.22.56-.4.16-.17.29-.38.38-.62s.14-.51.14-.81-.05-.57-.14-.81Z"/><path d="m38.66,14.88V6.47h1.41v8.41h-1.41Z"/><path d="m47.78,13.07c-.17.38-.39.72-.68,1.01s-.63.52-1.03.69-.83.25-1.3.25-.89-.08-1.28-.25-.74-.39-1.03-.68-.51-.62-.67-1-.24-.79-.24-1.23.08-.85.25-1.24c.17-.39.39-.73.68-1.01s.63-.52,1.03-.69c.4-.17.83-.25,1.3-.25s.9.08,1.3.25.74.39,1.03.68c.29.29.51.62.67,1.01s.24.79.24,1.23-.08.85-.25,1.23Zm-1.29-1.97c-.09-.24-.22-.45-.38-.63s-.36-.32-.58-.43c-.22-.1-.47-.16-.75-.16s-.53.05-.75.16c-.23.1-.42.24-.58.42-.16.18-.28.38-.37.62-.08.23-.12.49-.12.75s.04.52.14.77c.09.24.22.45.38.63.16.18.36.32.58.42.22.1.47.16.74.16.28,0,.54-.05.76-.16.22-.1.42-.24.58-.42.16-.18.28-.38.37-.62s.13-.49.13-.75-.05-.52-.14-.76Z"/><path d="m53.73,14.7c-.38.21-.87.32-1.46.32-.45,0-.87-.08-1.26-.25-.38-.17-.72-.39-1-.68-.28-.29-.5-.62-.66-1-.16-.38-.24-.79-.24-1.23s.08-.85.24-1.23c.16-.38.38-.72.66-1.01.28-.29.62-.52,1.01-.69.39-.17.81-.25,1.26-.25.58,0,1.05.1,1.43.29s.71.45,1,.76l-.86.93c-.21-.22-.44-.41-.69-.55-.24-.14-.54-.21-.89-.21-.25,0-.49.05-.7.16-.21.1-.4.24-.55.42-.15.18-.27.38-.36.62-.09.23-.13.49-.13.75s.04.53.13.77c.09.24.21.45.38.62.16.18.35.32.58.42s.47.16.74.16c.33,0,.62-.07.87-.21.25-.14.49-.32.71-.55l.84.83c-.3.34-.64.61-1.03.82Z"/><path d="m59.74,14.88v-.75c-.21.25-.47.45-.79.62-.32.17-.71.25-1.17.25-.29,0-.57-.04-.83-.12-.26-.08-.49-.2-.69-.36-.2-.16-.35-.35-.47-.59s-.18-.5-.18-.81v-.02c0-.33.06-.62.18-.86.12-.25.29-.45.51-.61.22-.16.48-.28.78-.36.3-.08.63-.12.98-.12s.68.02.94.07c.26.05.5.11.74.18v-.15c0-.42-.13-.74-.39-.97-.26-.22-.63-.33-1.11-.33-.35,0-.65.04-.92.1-.27.07-.54.16-.82.28l-.38-1.12c.34-.15.68-.28,1.04-.37s.78-.14,1.28-.14c.91,0,1.58.22,2.02.67s.66,1.08.66,1.9v3.61h-1.38Zm.03-2.58c-.18-.07-.39-.13-.63-.17-.24-.05-.5-.07-.77-.07-.44,0-.78.08-1.03.25s-.37.41-.37.73v.02c0,.29.11.51.34.67.23.15.5.23.84.23.23,0,.44-.03.64-.09.2-.06.37-.15.51-.26.15-.11.26-.25.34-.4.08-.16.12-.33.12-.52v-.38Z"/><path d="m62.87,14.88V6.47h1.41v8.41h-1.41Z"/><path d="m16.93,27.01c-.16.39-.37.72-.63,1-.27.27-.57.48-.91.62-.34.14-.69.21-1.05.21-.5,0-.91-.11-1.24-.32-.33-.21-.6-.46-.82-.75v2.79s-1.39,0-1.39,0v-7.92h1.41v1.01c.22-.32.5-.59.83-.81s.74-.33,1.23-.33c.36,0,.71.07,1.05.21.34.14.64.34.9.62.26.27.48.61.64,1,.16.39.24.84.24,1.35s-.08.96-.24,1.35Zm-1.31-2.16c-.09-.24-.22-.45-.37-.62-.16-.17-.34-.3-.55-.39-.21-.09-.44-.14-.67-.14s-.46.05-.68.14c-.22.09-.4.22-.56.4s-.29.38-.39.62c-.1.24-.14.51-.14.81s.05.57.14.81c.1.24.22.44.39.62s.35.3.56.4c.21.09.44.14.68.14s.46-.05.67-.14c.21-.09.4-.22.55-.39.16-.17.28-.37.37-.62.09-.24.14-.51.14-.81s-.05-.57-.14-.81Z"/><path d="m22.32,28.7v-.75c-.21.25-.47.45-.79.62-.32.17-.71.25-1.18.25-.29,0-.57-.04-.83-.12-.26-.08-.49-.2-.69-.36s-.35-.35-.47-.59-.18-.5-.18-.81v-.02c0-.33.06-.62.18-.86.12-.25.29-.45.51-.61.22-.16.48-.28.78-.36.3-.08.63-.12.99-.12s.68.02.94.07c.26.05.5.11.74.19v-.15c0-.42-.13-.74-.39-.97-.26-.22-.63-.33-1.11-.33-.35,0-.65.04-.92.1-.27.07-.54.16-.82.28l-.38-1.12c.34-.15.68-.28,1.04-.37.35-.09.78-.14,1.28-.14.91,0,1.58.22,2.02.67.44.45.66,1.08.66,1.9v3.61h-1.38Zm.03-2.58c-.18-.07-.39-.13-.63-.17-.24-.05-.5-.07-.77-.07-.44,0-.78.08-1.03.25-.25.17-.37.41-.37.73v.02c0,.29.11.51.34.67.23.15.5.23.83.23.23,0,.44-.03.64-.09s.37-.15.51-.26c.15-.11.26-.25.34-.4.08-.16.12-.33.12-.52v-.38Z"/><path d="m29.64,28.53c-.38.21-.87.32-1.46.32-.45,0-.87-.08-1.26-.25s-.72-.39-1-.68c-.28-.29-.5-.62-.66-1-.16-.38-.24-.79-.24-1.23s.08-.85.24-1.23c.16-.38.38-.72.66-1.01.28-.29.62-.52,1.01-.69.39-.17.81-.25,1.26-.25.58,0,1.05.1,1.43.29.38.19.71.45,1,.76l-.86.93c-.21-.22-.44-.41-.69-.55-.24-.14-.54-.21-.89-.21-.25,0-.49.05-.7.16-.21.1-.4.24-.55.42-.15.18-.27.38-.36.62-.09.23-.13.49-.13.75s.04.53.13.77c.09.24.21.45.37.62.16.18.35.32.58.42s.47.16.74.16c.33,0,.62-.07.87-.21.25-.14.49-.32.71-.55l.84.83c-.3.34-.64.61-1.03.82Z"/><path d="m37.64,28.7h-1.61l-1.83-2.63-.85.89v1.74h-1.41v-8.41h1.41v5.02l2.52-2.7h1.69l-2.42,2.48,2.5,3.61Z"/><path d="m42.24,28.7v-.75c-.21.25-.47.45-.79.62s-.71.25-1.17.25c-.29,0-.57-.04-.83-.12-.26-.08-.49-.2-.69-.36-.2-.16-.35-.35-.47-.59s-.18-.5-.18-.81v-.02c0-.33.06-.62.18-.86.12-.25.29-.45.51-.61.22-.16.48-.28.78-.36.3-.08.63-.12.98-.12s.68.02.94.07c.26.05.5.11.74.19v-.15c0-.42-.13-.74-.39-.97-.26-.22-.63-.33-1.11-.33-.35,0-.65.04-.92.1-.27.07-.54.16-.82.28l-.38-1.12c.34-.15.68-.28,1.04-.37s.78-.14,1.28-.14c.91,0,1.58.22,2.02.67s.66,1.08.66,1.9v3.61h-1.38Zm.03-2.58c-.18-.07-.39-.13-.63-.17-.24-.05-.5-.07-.77-.07-.44,0-.78.08-1.03.25s-.37.41-.37.73v.02c0,.29.11.51.34.67.23.15.5.23.84.23.23,0,.44-.03.64-.09.2-.06.37-.15.51-.26.15-.11.26-.25.34-.4.08-.16.12-.33.12-.52v-.38Z"/><path d="m50.41,29.82c-.57.5-1.38.75-2.42.75s-1.92-.24-2.72-.73l.52-1.05c.32.2.66.36,1.01.47.35.12.74.17,1.15.17.62,0,1.1-.16,1.43-.47s.5-.78.5-1.4v-.47c-.25.33-.55.61-.89.81s-.76.31-1.26.31c-.36,0-.71-.06-1.04-.19-.33-.13-.62-.31-.88-.56-.26-.25-.46-.55-.62-.9-.15-.35-.23-.76-.23-1.21s.08-.86.23-1.21c.15-.35.36-.65.62-.9.26-.25.55-.43.89-.57.33-.13.68-.2,1.03-.2.51,0,.94.1,1.27.31.33.21.62.45.86.74v-.92h1.39v4.84c0,1.08-.28,1.86-.85,2.36Zm-.66-5.15c-.1-.21-.22-.39-.39-.53-.16-.15-.35-.26-.57-.34-.22-.08-.45-.12-.69-.12s-.47.04-.68.12c-.21.08-.39.19-.55.34-.16.14-.28.32-.37.53-.09.21-.13.43-.13.69s.05.48.14.69c.09.21.21.38.37.53s.34.26.55.34c.21.08.44.12.67.12s.47-.04.69-.12c.22-.08.41-.2.57-.34.16-.15.29-.32.39-.53.1-.2.14-.43.14-.68s-.05-.48-.14-.69Z"/><path d="m54.66,27.3c.32.26.7.4,1.15.4.35,0,.64-.06.9-.18s.5-.3.75-.54l.82.73c-.29.35-.64.62-1.04.83s-.89.31-1.45.31c-.44,0-.85-.08-1.23-.23-.38-.15-.71-.37-.99-.65s-.5-.61-.66-1-.24-.82-.24-1.3c0-.44.07-.85.22-1.23.15-.38.35-.72.62-1.01.26-.29.58-.52.94-.69.36-.17.76-.25,1.2-.25.48,0,.91.09,1.27.26.37.18.67.42.91.71.24.3.42.65.55,1.05.12.4.18.82.18,1.26,0,.06,0,.12,0,.18,0,.06,0,.13-.02.2h-4.47c.08.5.28.88.6,1.15Zm2.51-2.07c-.02-.22-.07-.43-.15-.63-.08-.2-.18-.37-.31-.51-.13-.14-.29-.26-.47-.34-.18-.08-.39-.13-.62-.13-.43,0-.79.15-1.07.44s-.45.68-.51,1.16h3.12Z"/><path d="m64.13,27.75c-.12.24-.27.44-.48.59-.2.16-.44.28-.72.36-.28.08-.57.12-.89.12-.44,0-.88-.08-1.33-.23s-.87-.38-1.25-.68l.62-.94c.33.25.67.43,1.01.56s.67.19.99.19.53-.06.7-.18.25-.28.25-.48v-.02c0-.12-.04-.22-.11-.3-.07-.08-.17-.16-.3-.22-.13-.07-.27-.12-.44-.17s-.34-.1-.51-.16c-.22-.07-.45-.15-.67-.23-.23-.08-.43-.19-.61-.33-.18-.13-.33-.3-.44-.5s-.17-.44-.17-.73v-.02c0-.28.06-.54.17-.77s.26-.43.46-.59c.2-.16.43-.28.69-.37.26-.08.55-.13.85-.13.38,0,.77.06,1.16.18.39.12.75.29,1.07.51l-.55.99c-.29-.18-.59-.32-.89-.42-.3-.1-.58-.16-.83-.16-.27,0-.48.06-.63.17-.15.12-.22.26-.22.44v.02c0,.11.04.2.12.28.08.08.18.15.31.22.13.06.27.13.44.18.17.06.34.11.51.17.22.07.45.15.67.24.22.09.42.21.61.34.18.13.33.3.44.49.12.19.17.43.17.7v.02c0,.32-.06.6-.17.84Z"/><path d="m99.02,11.68h1.93v5.38h5.43v1.88h-5.43v5.38h-1.93v-5.38h-5.43v-1.88h5.43v-5.38Z"/><line class="cls-1" x1="79.96" x2="79.96" y2="36"/></svg>