<?xml version="1.0" encoding="UTF-8"?><svg id="Layer_1" xmlns="http://www.w3.org/2000/svg" viewBox="0 0 100 100"><defs><style>.cls-1{fill:#333;}</style></defs><path class="cls-1" d="m72.28,22.67l16.86.1L68.08,0l-.09,17.67c-.01,2.73,1.92,4.98,4.29,4.99h0Z"/><path class="cls-1" d="m79.93,39.07c0,1.2-.72,2.18-1.61,2.18H22.37c-.88,0-1.61-.98-1.61-2.18v-4.88c0-1.2.72-2.18,1.61-2.18h55.95c.88,0,1.61.98,1.61,2.18v4.88h0Z"/><path class="cls-1" d="m79.93,55.39c0,1.2-.72,2.17-1.61,2.17H22.37c-.88,0-1.61-.98-1.61-2.17v-4.88c0-1.2.72-2.17,1.61-2.17h55.95c.88,0,1.61.98,1.61,2.17v4.88h0Z"/><path class="cls-1" d="m79.93,70.07c0,1.2-.72,2.17-1.61,2.17H22.37c-.88,0-1.61-.98-1.61-2.17v-4.88c0-1.2.72-2.17,1.61-2.17h55.95c.88,0,1.61.98,1.61,2.17v4.88h0Z"/><path class="cls-1" d="m79.93,86.38c0,1.2-.72,2.17-1.61,2.17H22.37c-.88,0-1.61-.98-1.61-2.17v-4.88c0-1.2.72-2.17,1.61-2.17h55.95c.88,0,1.61.98,1.61,2.17v4.88h0Z"/><path class="cls-1" d="m71.81,24.56c-1.55,0-3.01-.7-4.11-1.94-1.09-1.23-1.69-2.86-1.68-4.58l.09-17.98H15.47c-2.57,0-4.67,2.31-4.67,5.13v89.68c0,2.82,2.1,5.13,4.67,5.13h69.06c2.57,0,4.67-2.31,4.67-5.13V24.67l-17.39-.11h0Z"/></svg>