<?xml version="1.0" encoding="utf-8"?>
<!-- Generator: Adobe Illustrator 27.2.0, SVG Export Plug-In . SVG Version: 6.00 Build 0)  -->
<svg version="1.1" id="Layer_1" xmlns="http://www.w3.org/2000/svg" xmlns:xlink="http://www.w3.org/1999/xlink" x="0px" y="0px"
	 viewBox="0 0 125 125" style="enable-background:new 0 0 125 125;" xml:space="preserve">
<style type="text/css">
	.st0{fill:#FFFFFF;}
	.st1{fill:#F47835;}
</style>
<g>
	<g id="houdini">
		<rect id="bg" class="st0" width="125" height="125"/>
		<path class="st1" d="M0,102.3V125h19.9C10.2,119.5,3.4,111.1,0,102.3L0,102.3z"/>
		<path class="st1" d="M83.6,78.5c0-21-16.9-41.2-42.2-42.1c-18-0.6-31.9,6-41.3,15.7v21.9c6.4-18.4,23.9-26.8,38.6-26.7
			c18.4,0.2,32.6,14,32.7,29.7c0.1,15-6.2,26-23.1,28.7c-9.2,1.5-23.7-3.9-23-17.9c0.3-7.2,5.9-11.2,12.3-11
			c-6.3,8.4,2,14.6,7.9,13.3c7.3-1.6,10.2-8,10.2-13c0-5.3-5-13.8-17.3-13.5C23,64.1,13.3,75.1,13,88.7
			c-0.4,17.1,15.6,28.4,32.1,28.6C69.2,117.6,83.6,101.8,83.6,78.5L83.6,78.5z"/>
		<path class="st1" d="M0,0v36c10.8-8.2,24.7-13.6,41.3-13.6c35.5,0,58,24.8,58,56.1c0,21.7-10.2,38.1-26,46.6H125V0H0L0,0z"/>
	</g>
	<g>
		<path class="st0" d="M66.8,5.1h4.7v6.4h6.1V5.1h4.7v17.1h-4.7v-6.5h-6.1v6.5h-4.7L66.8,5.1L66.8,5.1z"/>
		<path class="st0" d="M85.3,5.1h7.3c4.3,0,7.1,2.2,7.1,6v0.1c0,4-3.1,6.2-7.3,6.2h-2.3v4.9h-4.7L85.3,5.1L85.3,5.1z M92.3,13.6
			c1.7,0,2.7-0.9,2.7-2.2v0c0-1.5-1-2.2-2.7-2.2h-2.2v4.5H92.3z"/>
		<path class="st0" d="M101.8,5.1h5l4.1,6.6l4.1-6.6h5v17.1h-4.7v-9.8l-4.4,6.7h-0.1l-4.3-6.6v9.8h-4.6L101.8,5.1L101.8,5.1z"/>
	</g>
</g>
</svg>
