<?xml version="1.0" encoding="UTF-8"?><svg id="Layer_1" xmlns="http://www.w3.org/2000/svg" viewBox="0 0 120 36"><defs><style>.cls-1{fill:none;stroke:#000;stroke-miterlimit:10;}.cls-2{fill:#ff8c14;}</style></defs><rect class="cls-2" width="120" height="36" rx="5.32" ry="5.32"/><path d="m98.45,22.9l-3.54-3.54,1.41-1.41,3.54,3.54,7.8-7.8,1.41,1.41-7.8,7.8-1.41,1.41-1.41-1.41Z"/><line class="cls-1" x1="83.5" x2="83.5" y2="36"/><path d="m17.58,14.11c.1,0,.18.04.25.11l.7.75c-.38.48-.86.84-1.42,1.09-.56.25-1.24.38-2.02.38-.7,0-1.34-.12-1.9-.36s-1.04-.57-1.44-1c-.4-.43-.7-.94-.92-1.53-.21-.59-.32-1.24-.32-1.95s.12-1.36.35-1.96c.24-.59.57-1.1,1-1.53.43-.43.94-.76,1.54-1,.6-.24,1.25-.36,1.98-.36s1.32.11,1.84.34c.53.22.98.52,1.35.89l-.59.82c-.03.05-.08.1-.13.14s-.13.06-.23.06-.2-.04-.31-.12c-.1-.08-.24-.16-.4-.26-.16-.09-.37-.18-.61-.26-.25-.08-.56-.12-.94-.12-.45,0-.85.08-1.23.23-.37.16-.69.38-.96.67-.27.29-.48.64-.63,1.05-.15.41-.23.88-.23,1.39s.08,1.01.23,1.42c.15.42.35.76.61,1.05.26.28.56.5.91.65s.72.23,1.13.23c.24,0,.46-.01.65-.04s.37-.07.54-.12.32-.13.46-.22.29-.2.44-.33c.04-.04.09-.07.14-.09.05-.02.1-.04.16-.04Z"/><path d="m19.76,16.35v-6.72h.95c.17,0,.28.03.35.09.07.06.11.17.13.32l.1.81c.24-.42.52-.74.85-.98s.69-.36,1.09-.36c.33,0,.61.08.83.23l-.21,1.21c-.01.08-.04.13-.08.17-.04.03-.1.05-.18.05-.07,0-.16-.02-.27-.05-.11-.03-.26-.05-.45-.05-.34,0-.62.09-.87.28s-.44.46-.61.82v4.19h-1.62Z"/><path d="m27.89,9.52c.42,0,.81.07,1.17.2.36.14.66.33.92.59.26.26.46.58.6.96.14.38.22.81.22,1.29,0,.12,0,.22-.02.3-.01.08-.03.14-.06.19s-.07.08-.12.1c-.05.02-.11.03-.18.03h-4.16c.05.69.23,1.2.56,1.52.32.32.75.49,1.28.49.26,0,.49-.03.68-.09.19-.06.36-.13.5-.2.14-.07.27-.14.37-.2.11-.06.21-.09.31-.09.07,0,.12.01.17.04.05.03.09.06.12.11l.47.59c-.18.21-.38.39-.6.53-.22.14-.46.25-.7.34-.24.09-.49.15-.74.18-.25.04-.49.05-.73.05-.47,0-.9-.08-1.3-.23-.4-.15-.75-.38-1.05-.69-.3-.3-.53-.68-.7-1.13-.17-.45-.25-.97-.25-1.56,0-.46.07-.89.22-1.29s.36-.76.64-1.05c.28-.3.62-.54,1.02-.71s.85-.26,1.35-.26Zm.03,1.16c-.47,0-.84.13-1.11.4s-.44.64-.51,1.13h3.04c0-.21-.03-.41-.08-.59s-.14-.35-.26-.49-.27-.25-.45-.33c-.18-.08-.39-.12-.63-.12Z"/><path d="m37.38,16.35h-.73c-.15,0-.27-.02-.36-.07-.09-.05-.15-.14-.2-.28l-.14-.48c-.17.15-.34.29-.5.4-.16.12-.33.21-.51.29-.17.08-.36.14-.56.18s-.42.06-.66.06c-.28,0-.55-.04-.79-.11-.24-.08-.45-.19-.62-.35-.17-.15-.31-.34-.4-.57-.1-.23-.14-.49-.14-.79,0-.25.07-.51.2-.75.13-.25.36-.47.67-.67.31-.2.72-.36,1.24-.5.52-.13,1.16-.2,1.92-.2v-.4c0-.45-.09-.79-.28-1.01-.19-.22-.47-.33-.83-.33-.26,0-.48.03-.66.09-.17.06-.33.13-.46.21s-.25.15-.36.21c-.11.06-.23.09-.36.09-.11,0-.2-.03-.28-.08-.08-.06-.14-.13-.19-.21l-.29-.52c.77-.71,1.71-1.06,2.8-1.06.39,0,.74.06,1.05.19.31.13.57.31.78.54.21.23.38.5.49.82.11.32.17.67.17,1.05v4.25Zm-3.15-1.01c.17,0,.32-.02.46-.05.14-.03.27-.08.4-.13.12-.06.25-.13.36-.22.12-.09.23-.19.35-.31v-1.12c-.47,0-.87.03-1.18.09-.32.06-.57.14-.76.23-.19.09-.33.2-.41.32s-.12.26-.12.4c0,.29.08.49.25.61.17.12.39.19.66.19Z"/><path d="m41.18,16.45c-.58,0-1.03-.16-1.34-.49-.31-.33-.47-.79-.47-1.37v-3.75h-.68c-.09,0-.16-.03-.23-.08s-.09-.14-.09-.26v-.64l1.08-.18.34-1.83c.02-.09.06-.15.12-.2.06-.05.14-.07.24-.07h.84v2.12h1.77v1.15h-1.77v3.64c0,.21.05.37.16.49.1.12.24.18.42.18.1,0,.18-.01.25-.04.07-.02.13-.05.18-.08.05-.03.09-.05.13-.08.04-.02.08-.04.12-.04.05,0,.09.01.12.04.03.02.06.06.1.11l.49.79c-.24.2-.51.34-.81.45s-.62.15-.95.15Z"/><path d="m46.83,9.52c.42,0,.81.07,1.17.2.36.14.66.33.92.59.26.26.46.58.6.96.14.38.22.81.22,1.29,0,.12,0,.22-.02.3-.01.08-.03.14-.06.19s-.07.08-.12.1c-.05.02-.11.03-.18.03h-4.16c.05.69.23,1.2.56,1.52.32.32.75.49,1.28.49.26,0,.49-.03.68-.09.19-.06.36-.13.5-.2.14-.07.27-.14.37-.2.11-.06.21-.09.31-.09.07,0,.12.01.17.04.05.03.09.06.12.11l.47.59c-.18.21-.38.39-.6.53-.22.14-.46.25-.7.34-.24.09-.49.15-.74.18-.25.04-.49.05-.73.05-.47,0-.9-.08-1.3-.23-.4-.15-.75-.38-1.05-.69-.3-.3-.53-.68-.7-1.13-.17-.45-.25-.97-.25-1.56,0-.46.07-.89.22-1.29s.36-.76.64-1.05c.28-.3.62-.54,1.02-.71s.85-.26,1.35-.26Zm.03,1.16c-.47,0-.84.13-1.11.4s-.44.64-.51,1.13h3.04c0-.21-.03-.41-.08-.59s-.14-.35-.26-.49-.27-.25-.45-.33c-.18-.08-.39-.12-.63-.12Z"/><path d="m10.97,30.83v-8.92h.99c.1,0,.19.02.27.07.07.05.12.12.14.22l.13.62c.27-.31.58-.56.93-.75.35-.19.76-.29,1.24-.29.37,0,.7.08,1.01.23s.57.37.79.67c.22.29.39.65.51,1.07.12.43.18.91.18,1.46,0,.5-.07.97-.2,1.4-.14.43-.33.8-.58,1.11s-.55.56-.91.74c-.36.18-.75.27-1.2.27-.38,0-.7-.06-.97-.17-.26-.12-.5-.28-.71-.48v2.75h-1.62Zm3.15-7.77c-.34,0-.62.07-.86.21-.24.14-.46.34-.67.6v3.01c.18.23.38.39.6.48.22.09.45.13.7.13s.47-.05.67-.14c.2-.09.37-.23.5-.42.14-.19.24-.42.32-.71s.11-.62.11-1.01-.03-.73-.09-1c-.06-.27-.15-.5-.27-.67-.12-.17-.26-.29-.43-.37-.17-.08-.36-.12-.57-.12Z"/><path d="m23.65,28.63h-.73c-.15,0-.27-.02-.36-.07-.09-.05-.15-.14-.2-.28l-.14-.48c-.17.15-.34.29-.5.4-.16.12-.33.21-.51.29-.17.08-.36.14-.56.18s-.42.06-.66.06c-.28,0-.55-.04-.79-.11-.24-.08-.45-.19-.62-.35-.17-.15-.31-.34-.4-.57-.1-.23-.14-.49-.14-.79,0-.25.07-.51.2-.75.13-.25.36-.47.67-.67.31-.2.72-.36,1.24-.5.52-.13,1.16-.2,1.92-.2v-.4c0-.45-.09-.79-.28-1.01-.19-.22-.47-.33-.83-.33-.26,0-.48.03-.66.09-.17.06-.33.13-.46.21s-.25.15-.36.21c-.11.06-.23.09-.36.09-.11,0-.2-.03-.28-.08-.08-.06-.14-.13-.19-.21l-.29-.52c.77-.71,1.71-1.06,2.8-1.06.39,0,.74.06,1.05.19.31.13.57.31.78.54.21.23.38.5.49.82.11.32.17.67.17,1.05v4.25Zm-3.15-1.01c.17,0,.32-.02.46-.05.14-.03.27-.08.4-.13.12-.06.25-.13.36-.22.12-.09.23-.19.35-.31v-1.12c-.47,0-.87.03-1.18.09-.32.06-.57.14-.76.23-.19.09-.33.2-.41.32s-.12.26-.12.4c0,.29.08.49.25.61.17.12.39.19.66.19Z"/><path d="m29.97,23.33c-.05.06-.1.11-.14.14s-.11.05-.2.05-.16-.03-.24-.08c-.08-.05-.17-.11-.28-.17s-.24-.12-.39-.17c-.15-.05-.34-.08-.56-.08-.28,0-.53.05-.75.15s-.39.25-.53.44-.25.42-.32.7c-.07.27-.11.58-.11.93s.04.68.12.96c.08.28.19.51.33.7.14.19.32.33.52.43.21.1.44.15.7.15s.47-.03.63-.09c.16-.06.29-.13.4-.21s.2-.15.29-.21c.08-.06.17-.09.27-.09.13,0,.23.05.29.15l.47.59c-.18.21-.37.39-.58.53-.21.14-.43.25-.65.34-.22.09-.46.15-.7.18s-.48.05-.71.05c-.42,0-.81-.08-1.17-.23-.37-.15-.69-.38-.96-.68-.27-.3-.49-.66-.65-1.09-.16-.43-.24-.92-.24-1.47,0-.49.07-.95.21-1.37.14-.42.35-.79.63-1.09.27-.31.62-.55,1.02-.72s.87-.26,1.4-.26.94.08,1.32.24c.38.16.72.39,1.02.7l-.43.59Z"/><path d="m33.13,18.9v5.58h.3c.11,0,.19-.01.26-.05.06-.03.13-.09.2-.17l1.67-2.06c.07-.09.15-.16.24-.21.08-.05.19-.08.33-.08h1.48l-2.09,2.5c-.07.09-.15.18-.23.25-.08.08-.16.14-.26.2.09.07.17.14.24.23.07.09.14.18.21.28l2.24,3.26h-1.46c-.13,0-.23-.02-.32-.07-.09-.04-.17-.12-.24-.22l-1.71-2.55c-.07-.1-.13-.17-.2-.2-.07-.03-.16-.05-.29-.05h-.37v3.08h-1.62v-9.74h1.62Z"/><path d="m43.99,28.63h-.73c-.15,0-.27-.02-.36-.07-.09-.05-.15-.14-.2-.28l-.14-.48c-.17.15-.34.29-.5.4-.16.12-.33.21-.51.29-.17.08-.36.14-.56.18s-.42.06-.66.06c-.28,0-.55-.04-.79-.11-.24-.08-.45-.19-.62-.35-.17-.15-.31-.34-.4-.57-.1-.23-.14-.49-.14-.79,0-.25.07-.51.2-.75.13-.25.36-.47.67-.67.31-.2.72-.36,1.24-.5.52-.13,1.16-.2,1.92-.2v-.4c0-.45-.09-.79-.28-1.01-.19-.22-.47-.33-.83-.33-.26,0-.48.03-.66.09-.17.06-.33.13-.46.21s-.25.15-.36.21c-.11.06-.23.09-.36.09-.11,0-.2-.03-.28-.08-.08-.06-.14-.13-.19-.21l-.29-.52c.77-.71,1.71-1.06,2.8-1.06.39,0,.74.06,1.05.19.31.13.57.31.78.54.21.23.38.5.49.82.11.32.17.67.17,1.05v4.25Zm-3.15-1.01c.17,0,.32-.02.46-.05.14-.03.27-.08.4-.13.12-.06.25-.13.36-.22.12-.09.23-.19.35-.31v-1.12c-.47,0-.87.03-1.18.09-.32.06-.57.14-.76.23-.19.09-.33.2-.41.32s-.12.26-.12.4c0,.29.08.49.25.61.17.12.39.19.66.19Z"/><path d="m47.91,21.79c.29,0,.56.03.81.09.25.06.48.15.69.26h1.93v.6c0,.1-.03.18-.08.24s-.14.1-.27.12l-.6.11c.04.11.08.23.1.36.02.13.04.26.04.4,0,.33-.07.63-.2.9-.13.27-.32.5-.55.68-.23.19-.51.33-.83.44-.32.1-.67.15-1.04.15-.25,0-.5-.02-.74-.07-.21.13-.32.27-.32.43,0,.14.06.24.19.3.12.06.29.11.49.14s.43.04.69.04.52.01.79.03c.27.02.54.06.79.12s.49.14.69.26.37.28.49.48c.12.2.19.46.19.79,0,.3-.07.59-.22.87-.15.28-.36.53-.64.75s-.62.4-1.02.53-.86.2-1.38.2-.96-.05-1.33-.15c-.38-.1-.69-.23-.93-.39-.25-.16-.43-.35-.55-.57-.12-.21-.18-.44-.18-.67,0-.31.1-.58.29-.79s.46-.38.8-.51c-.17-.09-.3-.21-.4-.37-.1-.15-.15-.35-.15-.6,0-.1.02-.2.05-.31.03-.11.09-.21.16-.32s.16-.2.27-.3c.11-.09.24-.18.39-.25-.34-.18-.61-.43-.8-.73s-.29-.66-.29-1.08c0-.33.07-.63.2-.9.13-.27.32-.5.56-.69.24-.19.52-.33.84-.44.33-.1.68-.15,1.07-.15Zm1.78,7.12c0-.13-.04-.24-.12-.33-.08-.08-.19-.15-.32-.2-.14-.05-.29-.08-.48-.1s-.37-.03-.58-.03h-.63c-.22,0-.43-.02-.63-.07-.18.1-.33.22-.44.36s-.17.3-.17.47c0,.12.03.23.09.33.06.1.15.19.28.27s.3.13.5.17c.21.04.46.06.75.06s.56-.02.78-.07c.22-.05.4-.11.54-.19.14-.08.25-.18.31-.29.07-.11.1-.24.1-.37Zm-1.78-3.81c.2,0,.38-.03.52-.08.15-.05.27-.13.37-.23.1-.1.17-.21.22-.35.05-.14.08-.28.08-.45,0-.33-.1-.6-.3-.79-.2-.19-.5-.29-.89-.29s-.7.1-.89.29c-.2.19-.3.46-.3.79,0,.16.02.3.08.44.05.14.12.25.22.35.1.1.22.17.37.23.15.05.32.08.52.08Z"/><path d="m55.14,21.81c.42,0,.81.07,1.17.2.36.14.66.33.92.59.26.26.46.58.6.96.14.38.22.81.22,1.29,0,.12,0,.22-.02.3-.01.08-.03.14-.06.19s-.07.08-.12.1c-.05.02-.11.03-.18.03h-4.16c.05.69.23,1.2.56,1.52.32.32.75.49,1.28.49.26,0,.49-.03.68-.09.19-.06.36-.13.5-.2.14-.07.27-.14.37-.2.11-.06.21-.09.31-.09.07,0,.12.01.17.04.05.03.09.06.12.11l.47.59c-.18.21-.38.39-.6.53-.22.14-.46.25-.7.34-.24.09-.49.15-.74.18-.25.04-.49.05-.73.05-.47,0-.9-.08-1.3-.23-.4-.15-.75-.38-1.05-.69-.3-.3-.53-.68-.7-1.13-.17-.45-.25-.97-.25-1.56,0-.46.07-.89.22-1.29s.36-.76.64-1.05c.28-.3.62-.54,1.02-.71s.85-.26,1.35-.26Zm.03,1.16c-.47,0-.84.13-1.11.4s-.44.64-.51,1.13h3.04c0-.21-.03-.41-.08-.59s-.14-.35-.26-.49-.27-.25-.45-.33c-.18-.08-.39-.12-.63-.12Z"/><path d="m63.36,23.22c-.04.07-.09.12-.14.15-.05.03-.11.04-.18.04-.08,0-.16-.02-.25-.07s-.19-.09-.31-.15-.25-.1-.4-.15c-.15-.04-.33-.07-.53-.07-.32,0-.57.07-.75.2s-.28.31-.28.53c0,.14.05.27.14.36.09.1.22.18.37.26s.33.14.53.2c.2.06.4.12.6.19.21.07.41.15.6.24.2.09.37.2.53.34s.28.3.37.5c.09.19.14.42.14.69,0,.32-.06.62-.18.89-.12.27-.29.51-.52.71-.23.2-.51.35-.84.46s-.72.17-1.15.17c-.23,0-.46-.02-.68-.06-.22-.04-.43-.1-.64-.17s-.39-.16-.56-.26c-.17-.1-.32-.21-.46-.33l.37-.62c.05-.07.11-.13.17-.17.07-.04.15-.06.25-.06s.2.03.29.09c.09.06.19.12.31.18.12.07.26.13.42.18.16.06.36.09.61.09.19,0,.36-.02.5-.07s.25-.11.34-.18c.09-.07.15-.16.2-.26.04-.1.06-.2.06-.3,0-.16-.05-.29-.14-.39-.09-.1-.22-.19-.37-.26s-.33-.14-.53-.2c-.2-.06-.4-.12-.61-.19-.21-.07-.41-.15-.61-.25-.2-.09-.38-.21-.53-.36-.16-.14-.28-.32-.37-.53-.09-.21-.14-.46-.14-.76,0-.27.05-.54.16-.79s.27-.47.48-.65c.21-.19.48-.33.79-.45s.68-.17,1.1-.17c.46,0,.88.08,1.26.23s.7.35.95.6l-.37.58Z"/></svg>