<?xml version="1.0" encoding="UTF-8"?><svg id="Layer_1" xmlns="http://www.w3.org/2000/svg" viewBox="0 0 120 36"><defs><style>.cls-1{fill:none;stroke:#000;stroke-miterlimit:10;}.cls-2{fill:#ff8214;}</style></defs><rect class="cls-2" width="120" height="36" rx="5.32" ry="5.32"/><path d="m20.07,16.58h-1.7l-.93-2.21h-4.34l-.94,2.21h-1.65l4.04-9.24h1.49l4.04,9.24Zm-4.81-7.31l-1.57,3.67h3.16l-1.59-3.67Z"/><path d="m26.33,16.58v-1.15c-.25.36-.57.66-.95.92-.38.25-.85.38-1.41.38-.41,0-.81-.08-1.19-.24s-.72-.39-1.02-.7c-.3-.31-.54-.69-.72-1.13-.18-.45-.27-.96-.27-1.53s.09-1.09.27-1.53.42-.82.71-1.13c.3-.31.64-.54,1.03-.7s.79-.24,1.2-.24c.57,0,1.04.12,1.41.37.37.25.69.53.94.85v-3.72h1.6v9.57h-1.6Zm-.14-4.38c-.11-.27-.25-.5-.44-.7-.18-.2-.4-.35-.64-.45-.24-.11-.5-.16-.76-.16s-.52.05-.76.15c-.24.1-.45.25-.63.44-.18.19-.33.43-.43.7-.1.27-.16.59-.16.94s.05.65.16.92.25.51.43.7c.18.19.39.34.63.45.24.11.5.16.76.16s.51-.05.76-.16c.24-.1.46-.25.64-.45.18-.2.33-.43.44-.7.11-.27.16-.58.16-.92s-.05-.65-.16-.92Z"/><path d="m35.11,16.58v-1.15c-.25.36-.57.66-.95.92-.38.25-.85.38-1.41.38-.41,0-.81-.08-1.19-.24s-.72-.39-1.02-.7c-.3-.31-.54-.69-.72-1.13-.18-.45-.27-.96-.27-1.53s.09-1.09.27-1.53.42-.82.71-1.13c.3-.31.64-.54,1.03-.7s.79-.24,1.2-.24c.57,0,1.04.12,1.41.37.37.25.69.53.94.85v-3.72h1.6v9.57h-1.6Zm-.14-4.38c-.11-.27-.25-.5-.44-.7-.18-.2-.4-.35-.64-.45-.24-.11-.5-.16-.76-.16s-.52.05-.76.15c-.24.1-.45.25-.63.44-.18.19-.33.43-.43.7-.1.27-.16.59-.16.94s.05.65.16.92.25.51.43.7c.18.19.39.34.63.45.24.11.5.16.76.16s.51-.05.76-.16c.24-.1.46-.25.64-.45.18-.2.33-.43.44-.7.11-.27.16-.58.16-.92s-.05-.65-.16-.92Z"/><path d="m42.71,16.58V7.01h1.6v9.57h-1.6Z"/><path d="m53.08,14.52c-.19.44-.45.82-.77,1.15s-.72.59-1.17.78c-.45.19-.95.29-1.48.29s-1.01-.09-1.46-.28c-.45-.19-.84-.45-1.17-.77s-.58-.71-.77-1.14c-.18-.43-.28-.9-.28-1.4s.09-.97.28-1.41c.19-.44.45-.83.77-1.15.33-.33.72-.59,1.17-.78.45-.19.94-.29,1.47-.29s1.02.09,1.47.28c.45.19.84.45,1.17.77.33.33.58.71.77,1.15.18.44.28.9.28,1.4s-.09.97-.28,1.4Zm-1.47-2.24c-.1-.27-.25-.51-.44-.71s-.41-.37-.66-.49c-.26-.12-.54-.18-.85-.18s-.6.06-.85.18c-.26.12-.48.28-.66.48-.18.2-.32.43-.42.7-.1.27-.14.55-.14.86s.05.6.16.87c.1.27.25.51.44.71.19.2.41.36.66.48s.54.18.84.18c.32,0,.61-.06.87-.18s.48-.28.66-.48c.18-.2.32-.43.42-.7s.14-.55.14-.86-.05-.59-.16-.87Z"/><path d="m59.85,16.38c-.44.24-.99.36-1.66.36-.52,0-.99-.09-1.43-.28-.44-.19-.82-.45-1.14-.77-.32-.33-.57-.71-.75-1.14s-.27-.9-.27-1.4.09-.97.27-1.4.43-.82.75-1.15c.32-.33.7-.59,1.14-.79s.92-.29,1.44-.29c.66,0,1.2.11,1.63.33.43.22.81.51,1.13.87l-.98,1.06c-.24-.25-.5-.46-.78-.62-.28-.16-.61-.24-1.02-.24-.29,0-.55.06-.8.18-.24.12-.45.28-.63.48s-.31.43-.41.7-.15.55-.15.86.05.61.15.88c.1.27.24.51.43.71.18.2.4.36.66.48.25.12.53.18.84.18.38,0,.71-.08.99-.24.28-.16.55-.37.81-.62l.96.94c-.34.38-.73.7-1.17.94Z"/><path d="m66.69,16.58v-.85c-.24.28-.54.52-.9.71-.37.19-.81.29-1.34.29-.33,0-.65-.05-.94-.14-.3-.09-.56-.23-.78-.41-.22-.18-.4-.4-.54-.67-.14-.27-.2-.57-.2-.92v-.03c0-.38.07-.7.21-.98.14-.28.33-.51.58-.69.25-.18.55-.32.89-.41.35-.09.72-.14,1.12-.14s.78.03,1.07.08c.29.05.58.12.85.21v-.17c0-.48-.15-.85-.44-1.1-.29-.25-.71-.38-1.26-.38-.39,0-.74.04-1.05.12s-.62.18-.93.31l-.43-1.27c.38-.17.78-.31,1.18-.42.4-.1.89-.16,1.46-.16,1.03,0,1.79.26,2.29.77s.75,1.23.75,2.16v4.1h-1.57Zm.04-2.94c-.2-.08-.44-.14-.71-.2-.27-.05-.57-.08-.87-.08-.5,0-.89.1-1.17.29-.28.19-.42.47-.42.83v.03c0,.33.13.58.39.76s.57.26.95.26c.26,0,.5-.03.73-.1.22-.07.42-.17.58-.29s.29-.28.39-.46c.09-.18.14-.38.14-.6v-.43Z"/><path d="m70.25,16.58V7.01h1.6v9.57h-1.6Z"/><path d="m17.99,26.94c-.18.45-.42.82-.72,1.13-.3.31-.65.54-1.04.7s-.79.24-1.2.24c-.57,0-1.04-.12-1.42-.37-.38-.25-.69-.53-.93-.85v3.17s-1.59,0-1.59,0v-9.02h1.6v1.15c.25-.37.57-.67.94-.92s.84-.37,1.4-.37c.41,0,.81.08,1.19.24s.73.39,1.03.7c.3.31.54.69.73,1.13.18.45.27.96.27,1.53s-.09,1.09-.27,1.53Zm-1.49-2.46c-.1-.28-.25-.51-.43-.7-.18-.19-.39-.34-.63-.45-.24-.11-.5-.16-.77-.16s-.53.05-.77.16c-.25.1-.46.25-.64.45-.18.2-.33.43-.44.7-.11.27-.16.58-.16.92s.05.65.16.92c.11.27.25.5.44.7.18.2.4.35.64.45.24.11.5.16.77.16s.53-.05.77-.16c.24-.1.45-.25.63-.45.18-.19.32-.43.43-.7s.16-.58.16-.92-.05-.65-.16-.92Z"/><path d="m19.97,28.87v-9.57h1.6v9.57h-1.6Z"/><path d="m28.16,21.95h1.6v6.92h-1.6v-1.09c-.23.33-.51.62-.85.87-.34.24-.77.36-1.31.36-.78,0-1.39-.24-1.82-.72s-.64-1.13-.64-1.94v-4.4h1.6v3.92c0,.54.13.96.38,1.25s.62.44,1.08.44.83-.15,1.12-.45.43-.72.43-1.26v-3.9Z"/><path d="m37.59,30.14c-.65.57-1.56.85-2.75.85s-2.18-.28-3.09-.83l.59-1.19c.37.23.75.41,1.15.54.4.13.84.2,1.31.2.71,0,1.25-.18,1.62-.54.38-.36.56-.89.56-1.59v-.54c-.29.38-.62.69-1.01.93-.38.24-.86.36-1.43.36-.41,0-.8-.07-1.18-.22-.38-.14-.71-.36-1-.64s-.53-.62-.7-1.02c-.17-.4-.26-.86-.26-1.38s.09-.97.26-1.38c.17-.4.41-.74.7-1.02.29-.28.63-.49,1.01-.64s.77-.22,1.17-.22c.59,0,1.07.12,1.45.35.38.23.71.51.98.84v-1.05h1.59v5.5c0,1.22-.32,2.12-.97,2.69Zm-.75-5.86c-.11-.24-.25-.44-.44-.61s-.4-.29-.65-.38-.51-.14-.78-.14-.54.05-.77.14-.44.22-.62.38c-.18.17-.32.36-.42.6s-.15.5-.15.78.05.55.16.78c.1.23.24.44.42.6.17.17.38.3.62.39.24.09.5.14.77.14s.53-.04.78-.14c.25-.09.47-.22.65-.39.18-.17.33-.37.44-.6.11-.23.16-.49.16-.77s-.05-.55-.16-.79Z"/><path d="m40.56,20.88v-1.51h1.72v1.51h-1.72Zm.07,7.98v-6.92h1.6v6.92h-1.6Z"/><path d="m45.88,28.87h-1.6v-6.92h1.6v1.09c.11-.17.24-.32.37-.47.13-.15.29-.28.47-.39.18-.12.38-.21.59-.27.21-.07.46-.1.73-.1.78,0,1.39.24,1.82.72s.64,1.13.64,1.94v4.4h-1.6v-3.92c0-.54-.13-.96-.38-1.25-.25-.29-.62-.44-1.08-.44s-.83.15-1.12.45c-.29.3-.43.72-.43,1.26v3.9Z"/><path d="m57.15,27.78c-.13.27-.31.5-.54.67-.23.18-.5.31-.82.41s-.65.14-1.01.14c-.5,0-1-.09-1.51-.26s-.99-.43-1.42-.77l.71-1.07c.38.28.76.49,1.15.63.39.14.76.22,1.12.22s.61-.07.79-.2.28-.32.28-.54v-.03c0-.13-.04-.24-.12-.34-.08-.1-.2-.18-.34-.26-.14-.07-.31-.14-.5-.2-.19-.06-.38-.12-.58-.18-.25-.08-.51-.17-.77-.26-.26-.1-.49-.22-.69-.37-.21-.15-.37-.34-.5-.56s-.2-.5-.2-.83v-.03c0-.32.06-.62.19-.88.13-.26.3-.49.52-.67.22-.18.49-.32.79-.42.3-.1.62-.14.96-.14.44,0,.88.07,1.32.21s.85.33,1.22.58l-.63,1.13c-.33-.2-.67-.36-1.01-.48s-.66-.18-.94-.18c-.31,0-.54.07-.71.2-.17.13-.26.3-.26.5v.03c0,.12.04.23.13.32.09.09.2.17.35.25.14.07.31.14.5.21s.38.13.58.19c.25.08.51.17.76.28.25.1.48.23.69.39.21.15.37.34.5.56s.2.49.2.8v.03c0,.37-.07.69-.2.96Z"/><path d="m101,12h2v5h5v2h-5v5h-2v-5h-5v-2h5v-5Z"/><line class="cls-1" x1="83.5" x2="83.5" y2="36"/></svg>