<?xml version="1.0" encoding="UTF-8"?><svg id="Layer_1" xmlns="http://www.w3.org/2000/svg" viewBox="0 0 24 24"><defs><style>.cls-1{fill:#666;}</style></defs><path class="cls-1" d="m16.58,9.12c-.3-.14-.44-.34-.42-.58.03-.24.13-.43.31-.58.05-.04.23-.17.52-.41s.66-.53,1.08-.87c-.75-.86-1.64-1.53-2.68-2.02-1.04-.49-2.16-.73-3.37-.73-1.12,0-2.18.21-3.16.63-.98.42-1.84.99-2.57,1.73-.73.73-1.31,1.59-1.73,2.57-.42.98-.63,2.03-.63,3.16s.21,2.15.63,3.13c.42.98,1,1.84,1.73,2.57.73.73,1.59,1.31,2.57,1.72.98.42,2.04.63,3.16.63.93,0,1.81-.15,2.64-.44s1.59-.71,2.28-1.24c.69-.53,1.28-1.16,1.77-1.89.49-.72.85-1.51,1.08-2.37.12-.41.36-.75.7-1.02.34-.27.74-.4,1.2-.4.55,0,1.02.2,1.41.59s.58.85.58,1.39c0,.25-.04.49-.13.72-.37,1.25-.93,2.4-1.66,3.45-.73,1.05-1.6,1.96-2.61,2.72-1.01.76-2.13,1.35-3.36,1.78-1.23.43-2.53.64-3.88.64-1.66,0-3.22-.31-4.69-.94-1.46-.62-2.74-1.48-3.82-2.57-1.08-1.09-1.94-2.36-2.57-3.81-.63-1.46-.95-3.01-.95-4.67s.32-3.22.95-4.68c.63-1.46,1.49-2.73,2.57-3.81,1.08-1.08,2.35-1.93,3.82-2.57,1.46-.63,3.03-.95,4.69-.95,1.84,0,3.54.38,5.12,1.14,1.57.76,2.91,1.79,4.02,3.09.41-.3.75-.57,1.03-.79.28-.22.45-.36.52-.41.11-.09.22-.16.35-.2.12-.04.24-.04.35,0s.2.14.28.28c.08.14.14.36.17.64.02.16.04.43.05.82.02.38.04.83.05,1.34.02.51.03,1.03.03,1.58s0,1.06-.03,1.54c-.02.61-.16,1.04-.43,1.31-.14.14-.36.22-.64.24-.29.02-.59,0-.91-.08-.48-.11-1.01-.22-1.59-.35-.58-.12-1.13-.25-1.66-.39-.53-.13-.99-.26-1.39-.37-.4-.11-.65-.2-.76-.25h0Z"/></svg>