<?xml version="1.0" encoding="UTF-8"?><svg id="Layer_1" xmlns="http://www.w3.org/2000/svg" viewBox="0 0 24 24"><defs><style>.cls-1{fill:#5c5c5c;}.cls-2{fill:#666;}</style></defs><path class="cls-2" d="m12,2c5.51,0,10,4.49,10,10s-4.49,10-10,10S2,17.51,2,12,6.49,2,12,2m0-2C5.37,0,0,5.37,0,12s5.37,12,12,12,12-5.37,12-12S18.63,0,12,0h0Z"/><polygon class="cls-1" points="17.3 8.11 15.89 6.7 12 10.59 8.11 6.7 6.7 8.11 10.59 12 6.7 15.89 8.11 17.3 12 13.41 15.89 17.3 17.3 15.89 13.41 12 17.3 8.11"/></svg>