<?xml version="1.0" encoding="UTF-8"?><svg id="Layer_1" xmlns="http://www.w3.org/2000/svg" viewBox="0 0 24 24"><defs><style>.cls-1{fill:#666;fill-rule:evenodd;}</style></defs><path class="cls-1" d="m12.01,0C5.37,0,0,5.5,0,12.3c0,5.44,3.44,10.04,8.21,11.67.6.12.82-.26.82-.59,0-.29-.02-1.26-.02-2.28-3.34.73-4.04-1.47-4.04-1.47-.54-1.43-1.33-1.79-1.33-1.79-1.09-.75.08-.75.08-.75,1.21.08,1.85,1.26,1.85,1.26,1.07,1.87,2.8,1.34,3.5,1.02.1-.79.42-1.34.76-1.65-2.66-.29-5.47-1.34-5.47-6.07,0-1.34.48-2.44,1.23-3.3-.12-.31-.54-1.57.12-3.26,0,0,1.01-.33,3.3,1.26.98-.27,1.99-.41,3-.41,1.01,0,2.05.14,3,.41,2.29-1.59,3.3-1.26,3.3-1.26.66,1.69.24,2.95.12,3.26.78.86,1.23,1.96,1.23,3.3,0,4.73-2.8,5.76-5.49,6.07.44.39.82,1.12.82,2.28,0,1.65-.02,2.97-.02,3.38,0,.33.22.71.82.59,4.77-1.63,8.21-6.23,8.21-11.67C24.02,5.5,18.63,0,12.01,0Z"/></svg>