<?xml version="1.0" encoding="UTF-8"?><svg id="Layer_1" xmlns="http://www.w3.org/2000/svg" viewBox="0 0 32 29"><defs><style>.cls-1{fill:#ff8c14;}</style></defs><path class="cls-1" d="m31.61,24.56l-6.55-11.54L18.51,1.48c-.53-.93-1.47-1.48-2.52-1.48s-1.99.55-2.52,1.48l-6.55,11.54L.44,24.47c-.43.76-.58,1.67-.3,2.5.43,1.25,1.52,2.03,2.76,2.03h26.09c.78,0,1.57-.26,2.12-.83.98-1.02,1.14-2.45.49-3.61Z"/><path d="m14.79,10h2.41l-.38,11h-1.65l-.38-11Zm-.01,13.51c0-.17.03-.32.1-.47s.15-.28.26-.39.24-.2.39-.27.31-.1.48-.1.32.03.46.1.27.16.38.27.2.24.26.39.1.31.1.47-.03.33-.1.49-.15.29-.26.4-.24.21-.38.28-.3.1-.46.1-.33-.03-.48-.1-.28-.16-.39-.28-.2-.25-.26-.4-.1-.31-.1-.49Z"/></svg>